<svg xmlns="http://www.w3.org/2000/svg" width="600" height="400" viewBox="0 0 600 400"><rect width="100%" height="100%" fill="#EEE"/><path fill="#31343C" d="M156.805 252.42q-8.49 0-14.49-2.25t-9.53-6.71q-3.54-4.46-5.11-10.49-1.57-6.03-1.57-14.21v-37.65q0-8.24 1.57-14.24t5.11-10.43q3.53-4.43 9.53-6.65 6-2.21 14.49-2.21 16.55 0 23.72 8.46 7.17 8.46 7.17 25.07v37.65q0 16.61-7.17 25.13-7.17 8.53-23.72 8.53Zm-3.48-16.68q1.45.74 3.48.74 2.03 0 3.51-.71 1.47-.7 2.27-1.78t1.26-2.8q.47-1.72.59-3.23t.12-3.6v-48.91q0-2.03-.12-3.54-.12-1.51-.59-3.2-.46-1.69-1.26-2.74-.8-1.04-2.27-1.75-1.48-.71-3.51-.71t-3.48.71q-1.44.71-2.24 1.72-.8 1.02-1.23 2.77-.43 1.76-.52 3.17-.1 1.42-.1 3.57v48.91q0 2.15.1 3.6.09 1.45.52 3.2.43 1.75 1.23 2.8.8 1.04 2.24 1.78Zm68.14 16.55q-9.29 0-15.44-4.4t-9.91-13.93l14.22-6.22q2.09 5.17 4.92 8 2.52 2.59 5.29 2.59h.61q1.91-.13 3.2-1.51 1.3-1.39 1.23-3.42-.06-1.04-.77-2.24-.7-1.2-2.67-3.08-1.97-1.87-2.74-2.55-.77-.68-3.54-3.02l-5.66-4.86q-12.36-10.45-12.36-20.42-.07-5.91 3.13-10.65 3.08-4.67 8.19-7.16 5.1-2.49 11.07-2.49 8.92 0 14.92 4.86t8.46 13.84l-13.29 6.21q-1.23-4.12-3.57-7.26-2.34-3.13-5.29-3.32h-.18q-2.22-.06-3.45 1.17-1.35 1.23-1.41 3.08-.25 2.95 8.73 10.45.74.68 1.11.99l5.48 4.92q3.2 2.77 4.79 4.34 1.6 1.57 3.88 4.34 2.28 2.76 3.29 5.66 1.02 2.89 1.02 6.21 0 6.21-3.32 10.83-3.33 4.61-8.53 6.83-5.19 2.21-11.41 2.21Zm56.36-1.29h-17.48l-10.76-72.84h17.16l5.23 41.34 5.79-41.34h14.82l4.99 42.26 6.09-42.26h15.93L308.585 251h-17.54l-6.27-40.79-6.95 40.79Zm73.33-12.86q1.48 0 3.05-1.01 1.57-1.02 2.55-2.43v-19.94q-4.92 2.46-8.09 6.92t-3.17 8.71q0 3.57 1.6 5.66 1.6 2.09 4.06 2.09Zm-7.44 14.15q-7.75-.12-12.34-5.5-4.58-5.39-4.58-12.28 0-3.57.89-6.67.89-3.11 2.16-5.39 1.26-2.27 3.53-4.43 2.28-2.15 4.12-3.47 1.85-1.33 4.9-2.83 3.04-1.51 4.89-2.25 1.84-.74 5.01-1.94t4.46-1.75v-7.2q0-3.07-.92-4.74-.92-1.66-3.39-1.66-4.18 0-4.42 5.79l-.5 5.35-19.19-.74q0-.18.06-1.23t.06-1.17q.92-11.93 7.41-17.59 6.5-5.66 18.55-5.66 10.77 0 16.4 5.96 5.63 5.97 5.63 15.94v33.9q0 7.01 1.29 18.27h-18.27q-1.6-8.86-1.72-10.34-1.48 4.99-5.05 8.31-3.57 3.32-8.98 3.32Zm66.44-1.29h-20.54V148.99h20.54V251Zm37.84-11.94q2.15 0 5.35-1.78v-45.83q-2.7-1.6-5.23-1.6-2.7 0-4 2.18-1.29 2.18-1.29 5.69v33.22q0 3.57 1.23 5.85 1.23 2.27 3.94 2.27Zm-8.86 13.23q-8.24 0-12.58-5.72t-4.34-16.98V200q0-10.4 4.34-16.74 4.34-6.33 12.58-6.33 7.57 0 14.21 5.72v-33.66h20.55V251h-20.55v-5.54q-6.95 6.77-14.21 6.83Z"/></svg>