<svg xmlns="http://www.w3.org/2000/svg" width="600" height="400" viewBox="0 0 600 400"><rect width="100%" height="100%" fill="#EEE"/><path fill="#31343C" d="m170.09 221.8-.12-44.1h-8.38l-16.25 27.4-16.51-27.4h-8.44v44.1h9.57v-25.89l12.92 21.23h4.6l12.98-21.8.06 26.46Zm25.9.5c10.77 0 18.58-7.24 18.58-17.45 0-10.2-7.81-17.45-18.58-17.45-10.78 0-18.65 7.25-18.65 17.45 0 10.21 7.87 17.45 18.65 17.45Zm0-8.06c-4.92 0-8.7-3.53-8.7-9.39 0-5.86 3.78-9.38 8.7-9.38 4.91 0 8.63 3.52 8.63 9.38 0 5.86-3.72 9.39-8.63 9.39Zm45.74-26.84c-4.6 0-8.57 1.58-11.22 4.47v-3.96h-9.39v33.89h9.83v-16.76c0-6.24 3.4-9.13 8.13-9.13 4.35 0 6.87 2.52 6.87 8v17.89h9.82v-19.4c0-10.34-6.04-15-14.04-15Zm42.14 25.83c-1.07.82-2.52 1.26-3.97 1.26-2.64 0-4.22-1.57-4.22-4.47v-13.8h8.44v-7.56h-8.44v-8.25h-9.83v8.25h-5.22v7.56h5.22v13.93c0 8.06 4.67 12.15 12.67 12.15 3.02 0 5.98-.69 8-2.14Zm19.6 9.07c10.14 0 16-4.47 16-10.77 0-13.36-20.48-7.75-20.48-13.54 0-1.77 1.89-3.15 6.3-3.15 3.09 0 6.43.63 9.77 2.52l3.27-7c-3.21-1.89-8.38-2.96-13.04-2.96-9.89 0-15.68 4.54-15.68 10.96 0 13.55 20.47 7.88 20.47 13.42 0 1.89-1.7 3.09-6.24 3.09-4.15 0-8.75-1.32-11.78-3.28l-3.27 7.06c3.15 2.08 8.94 3.65 14.68 3.65Zm55.25-17.32c0-10.9-7.69-17.58-17.64-17.58-10.34 0-18.08 7.31-18.08 17.45 0 10.08 7.62 17.45 19.34 17.45 6.11 0 10.83-1.89 13.98-5.48l-5.23-5.67c-2.33 2.21-4.91 3.28-8.5 3.28-5.17 0-8.76-2.58-9.7-6.81h25.64c.06-.81.19-1.89.19-2.64Zm-17.58-10.14c4.41 0 7.62 2.77 8.32 7.05h-16.7c.69-4.34 3.91-7.05 8.38-7.05Zm33.52-2.46v-4.47h-9.39v33.89h9.83v-16c0-6.49 3.59-9.45 9.01-9.45.75 0 1.38.06 2.2.12v-9.07c-5.23 0-9.26 1.7-11.65 4.98Zm26.9 0v-4.47h-9.39v33.89H402v-16c0-6.49 3.59-9.45 9.01-9.45.75 0 1.38.06 2.2.12v-9.07c-5.23 0-9.26 1.7-11.65 4.98Zm30.99-4.98c-5.42 0-10.9 1.45-14.61 4.1l3.52 6.86c2.46-1.95 6.18-3.15 9.77-3.15 5.29 0 7.81 2.46 7.81 6.68h-7.81c-10.33 0-14.55 4.16-14.55 10.14 0 5.86 4.72 10.27 12.66 10.27 4.98 0 8.5-1.63 10.33-4.72v4.22h9.2v-19.34c0-10.27-5.99-15.06-16.32-15.06Zm-.75 28.29c-3.47 0-5.55-1.64-5.55-4.1 0-2.26 1.45-3.97 6.05-3.97h6.74v3.47c-1.13 3.09-3.97 4.6-7.24 4.6Zm45.17-2.46c-1.07.82-2.52 1.26-3.97 1.26-2.65 0-4.22-1.57-4.22-4.47v-13.8h8.44v-7.56h-8.44v-8.25h-9.83v8.25h-5.23v7.56h5.23v13.93c0 8.06 4.66 12.15 12.66 12.15 3.03 0 5.99-.69 8-2.14Z"/></svg>